<svg xmlns="http://www.w3.org/2000/svg" viewBox="0 0 64 64" id="ArrowDown"><path d="M32 64C14.36 64 0 49.64 0 32 0 14.35 14.36 0 32 0s32 14.35 32 32c0 17.64-14.36 32-32 32zm0-59.36C16.91 4.64 4.64 16.91 4.64 32S16.91 59.36 32 59.36 59.36 47.09 59.36 32 47.09 4.64 32 4.64z" fill="#000000" class="color000000 svgShape"></path><path d="M32 47.88c-.65 0-1.26-.27-1.7-.75l-9.96-10.78c-.87-.94-.81-2.41.13-3.28.94-.87 2.41-.81 3.28.13L32 42.14l8.26-8.94c.87-.94 2.34-1 3.28-.13s1 2.34.13 3.28L33.7 47.13c-.44.48-1.05.75-1.7.75z" fill="#000000" class="color000000 svgShape"></path><path d="M32 47.88c-1.28 0-2.32-1.04-2.32-2.32V18.44c0-1.28 1.04-2.32 2.32-2.32s2.32 1.04 2.32 2.32v27.12c0 1.28-1.04 2.32-2.32 2.32z" fill="#000000" class="color000000 svgShape"></path></svg>