<svg xmlns="http://www.w3.org/2000/svg" viewBox="0 0 1200 1200"><title>job660-133</title><g style="isolation:isolate"><g id="Graphic_elements" data-name="Graphic elements"><g style="mix-blend-mode:multiply"><path d="M389.78,98.27c-.29,210.47,10,420.7,10.53,631.15L425.83,713a1722.49,1722.49,0,0,1-256.46,16.45c-8.16-.09-42,9.61-29.46,23.42A2939,2939,0,0,0,570.56,1142c9.53,7,29.11.4,36.34-7Q823.76,914.6,1058.09,712.77c13.59-11.71-5.2-20-15.76-18.76a1486.81,1486.81,0,0,1-230.62,9.9L826,715.6c3.32-215.24-16.32-429.24-34.91-643.45-.53-6.14-9.87-7.48-14.21-8.06C651.93,47.34,531.72,53.81,409.14,83c-27.76,6.61-20.81,32.25,6.88,25.66,85.81-20.43,172.07-30.49,260.35-25.06,36.89,2.28,53.33-3.54,72,31.53,14.51,27.23,8,91,10.62,122.22C772.6,398.16,782.91,559,780.43,720.51c-.13,8,7,11.44,14.31,11.69A1564.92,1564.92,0,0,0,1036.89,722q-7.87-9.39-15.76-18.76Q786.82,905,570,1125.51l36.34-7A2898.43,2898.43,0,0,1,181.85,734.3l-29.46,23.42a1800.84,1800.84,0,0,0,268-16.77c7.38-1,25.55-6.19,25.52-16.44-.58-210.44-10.82-420.68-10.53-631.15C435.41,72.72,389.8,81.47,389.78,98.27Z" style="fill:#272525"/></g></g></g></svg>