<svg xmlns="http://www.w3.org/2000/svg" enable-background="new 0 0 512 512" viewBox="0 0 512 512" id="Flower"><rect width="512" height="512" x=".2" fill="#ffffff" display="none" class="colorffe3e3 svgShape"></rect><path fill="#151515" d="M418.1,247.5c10.9-9.9,12.4-23.6,11.2-30.8l-0.2-1.1l-0.5-1.1c-4.9-11.2-13.2-18.7-24.6-22.3c-11-3.5-24.1-2.8-38.1,0.4c11.6-11.1,18.3-22.9,20-35.2c2.4-17.4-6.3-29-7.1-30.1c-13.7-18.3-34.1-19.3-49.1-15.8c-3.2-14.4-14.2-22.5-21-25.1l-1.1-0.4l-1.1-0.1c-12.1-1.4-22.7,2-31.5,10.1c-8.5,7.8-14.6,19.5-18.8,33.3c-3.8-15.6-10.6-27.3-20.5-35c-13.9-10.8-28.3-9.1-29.6-8.9c-22.7,2.7-33.8,19.9-38.2,34.6c-14-4.4-26.6,1.1-32.2,5.7l-0.9,0.7l-0.7,0.9c-7.2,9.8-9.6,20.7-7.1,32.3c2.5,11.3,9.6,22.4,19.5,32.9c-15.4-4.5-29-4.4-40.5,0.3c-16.3,6.7-22,19.9-22.5,21.2c-9,21,0.4,39.2,10.8,50.4c-10.9,10-12.3,23.6-11.2,30.8l0.2,1.1l0.5,1c4.9,11.2,13.1,18.7,24.4,22.3c5.1,1.6,10.7,2.4,16.6,2.4c6.9,0,14.2-1,21.7-2.8c-11.6,11.1-18.3,22.9-20,35.2c-2.4,17.4,6.3,29,7.1,30.1c13.7,18.3,34.1,19.3,49.1,15.8c3.2,14.4,14.3,22.5,21,25.1l1.1,0.4l1.1,0.1c1.7,0.2,3.4,0.3,5.1,0.3c10,0,18.9-3.5,26.5-10.4c8.5-7.8,14.6-19.5,18.8-33.3c3.8,15.6,10.6,27.3,20.5,34.9c10.2,7.9,20.6,9.1,26,9.1c2,0,3.3-0.2,3.7-0.2c22.7-2.7,33.8-19.9,38.2-34.6c14.1,4.4,26.6-1.1,32.2-5.7l0.9-0.7l0.7-0.9c7.2-9.8,9.6-20.8,7-32.4c-2.5-11.2-9.6-22.3-19.4-32.8c7.5,2.2,14.6,3.3,21.2,3.3c6.9,0,13.3-1.2,19.2-3.6c16.3-6.7,22-19.9,22.5-21.2C437.9,276.9,428.6,258.7,418.1,247.5z M256.2,286c-16.7,0-30.2-13.5-30.2-30.2c0-16.7,13.5-30.2,30.2-30.2s30.2,13.5,30.2,30.2C286.4,272.4,272.8,286,256.2,286z M287.1,109.3c4.6-4.2,9.8-6,16.1-5.6c2.8,1.4,10.7,6.6,9.2,19.2l-0.6,5.4c-7.4,12.4-18,33-17.7,49.6c0,2.5,2.1,4.4,4.5,4.4c0,0,0.1,0,0.1,0c2.5,0,4.5-2.1,4.4-4.6c-0.2-13.3,8.1-30.4,14.8-42.1l7.4-3.6c1-0.5,25.3-12.1,39.2,6.3c0,0.1,4.9,6.8,3.6,16.7c-1.5,10.9-10,22.3-24.6,32.9c-0.3,0.2-28,19.6-52.9,34.2c-6.8-6.9-15.6-11.9-25.5-13.7C264.9,158.3,272.8,122.3,287.1,109.3z M147.8,139.1c2.6-1.7,11.1-6,21.2,1.6l5.2,3.9c4.7,13.7,13.6,34.9,26.4,45.4c0.8,0.7,1.8,1,2.8,1c1.3,0,2.6-0.6,3.5-1.7c1.6-1.9,1.3-4.8-0.6-6.3c-10.9-8.9-19-28.1-23.4-40.8l0.5-8.1c0.1-1.1,1.9-27.9,25.1-30.7c0.1,0,8.3-0.9,16.2,5.3c8.7,6.7,14.3,19.9,16.2,37.8c0,0.4,3,34,3.2,62.8c-9.7,2.5-18.2,7.9-24.5,15.3c-43.6-24.8-70.9-49.7-75-68.6C143.2,149.7,144.3,144.4,147.8,139.1z M113.6,302.6c-6-1.9-10.1-5.5-12.9-11.2c-0.2-3.1,0.3-12.6,12-17.6l6.9-3c5.5,0.6,12.9,1.2,20.8,1.2c12,0,25.2-1.4,34.9-6.2c2.2-1.1,3.1-3.8,2-6c-1.1-2.2-3.8-3.1-6-2c-14.3,7.1-38.9,5.4-51.6,4l-5.5-3.7c-0.9-0.6-23.2-15.9-14.1-37.1c0-0.1,3.4-7.6,12.7-11.4c10.2-4.2,24.3-2.5,40.8,4.8c0.3,0.1,31.1,14.5,56.2,28.7c-1.1,4-1.7,8.3-1.7,12.6c0,5.6,1,11,2.8,16C167.4,297.3,132.1,308.5,113.6,302.6z M225.3,402.7c-4.6,4.2-9.8,6-16.2,5.6c-2.8-1.4-10.7-6.6-9.2-19.2l0.5-4.3c7.6-10.9,22.3-34.5,22.7-53.5c0.1-2.5-1.9-4.5-4.4-4.6c0,0-0.1,0-0.1,0c-2.4,0-4.4,2-4.5,4.4c-0.3,14.6-11.1,33.4-18.5,44.6L187,380c-1,0.5-25.3,12.1-39.1-6.2c-0.2-0.3-5.1-7-3.6-17.1c1.6-10.8,10.2-22.1,24.5-32.6c0.3-0.2,28.2-19.8,53.2-34.4c6.7,6.8,15.4,11.5,25.2,13.4C247.5,353.4,239.6,389.6,225.3,402.7z M364.6,372.9c-2.6,1.7-11.1,6-21.2-1.6l-4.2-3.2c-5.5-12.2-18.1-36.7-34-46.7c-2.1-1.3-4.9-0.7-6.2,1.4c-1.3,2.1-0.7,4.9,1.4,6.2c12.7,8,23.5,27.9,29.2,39.9L329,378c-0.1,1.1-1.9,27.9-24.9,30.7c-0.3,0-8.6,0.9-16.6-5.5c-8.5-6.8-14-19.8-15.9-37.5c0-0.4-3-34.4-3.2-63.3c9.5-2.5,17.9-7.8,24.2-15c43.8,24.8,71.2,49.7,75.3,68.7C369.2,362.3,368.1,367.7,364.6,372.9z M412.4,290.9c-0.1,0.3-3.5,7.9-13.1,11.7c-10.2,4-24.2,2.2-40.5-4.9c-0.3-0.2-31.2-14.5-56.3-28.8c1.2-4.2,1.9-8.6,1.9-13.1c0-5.5-1-10.7-2.6-15.6c43.3-25.4,78.4-36.6,96.9-30.7c6,1.9,10.1,5.5,12.9,11.2c0.2,3.5-0.5,12.7-12,17.6l-8.3,3.6c-14-0.9-39.7-1-55.3,7.8c-2.2,1.2-2.9,4-1.7,6.1c0.8,1.5,2.4,2.3,3.9,2.3c0.7,0,1.5-0.2,2.2-0.6c14.7-8.2,41.3-7.3,53.3-6.4l4.4,3C399.1,254.6,421.4,269.8,412.4,290.9z" class="color646464 svgShape"></path></svg>